<svg width="19" height="16" viewBox="0 0 19 16" fill="none" xmlns="http://www.w3.org/2000/svg">
<path d="M2.70155 7.30864H1.95155V7.30864L2.70155 7.30864ZM2.70155 8.62037L2.14007 9.1176C2.27536 9.27037 2.46705 9.36142 2.67094 9.36975C2.87483 9.37807 3.07331 9.30296 3.2206 9.16174L2.70155 8.62037ZM5.51905 6.95804C5.81805 6.67137 5.82804 6.1966 5.54137 5.89761C5.25471 5.59862 4.77994 5.58863 4.48095 5.8753L5.51905 6.95804ZM1.31148 5.91943C1.03686 5.60934 0.562863 5.58057 0.252767 5.85519C-0.0573298 6.1298 -0.0860937 6.6038 0.188521 6.9139L1.31148 5.91943ZM13.6326 3.3843C13.9139 3.68837 14.3884 3.70683 14.6925 3.42555C14.9965 3.14427 15.015 2.66976 14.7337 2.3657L13.6326 3.3843ZM9.31192 0C5.25246 0 1.95155 3.26665 1.95155 7.30864H3.45155C3.45155 4.10616 6.06976 1.5 9.31192 1.5V0ZM1.95155 7.30864L1.95155 8.62037L3.45155 8.62037L3.45155 7.30864L1.95155 7.30864ZM3.2206 9.16174L5.51905 6.95804L4.48095 5.8753L2.1825 8.079L3.2206 9.16174ZM3.26303 8.12314L1.31148 5.91943L0.188521 6.9139L2.14007 9.1176L3.26303 8.12314ZM14.7337 2.3657C13.3887 0.911725 11.4564 0 9.31192 0V1.5C11.0231 1.5 12.561 2.22586 13.6326 3.3843L14.7337 2.3657Z" fill="#8A8A8A"/>
<path d="M15.7936 7.04688L16.3543 6.54875C16.2188 6.39627 16.0271 6.30554 15.8233 6.29746C15.6195 6.28939 15.4212 6.36466 15.2741 6.50594L15.7936 7.04688ZM12.9808 8.70842C12.6821 8.99534 12.6725 9.47012 12.9594 9.76886C13.2463 10.0676 13.7211 10.0772 14.0198 9.79028L12.9808 8.70842ZM17.1896 9.74748C17.4647 10.0571 17.9388 10.0851 18.2485 9.81004C18.5581 9.53493 18.5861 9.06088 18.311 8.75122L17.1896 9.74748ZM4.83887 12.3046C4.55541 12.0026 4.08078 11.9875 3.77875 12.271C3.47671 12.5544 3.46165 13.0291 3.74511 13.3311L4.83887 12.3046ZM9.15795 15.6672C13.2287 15.6672 16.5436 12.4033 16.5436 8.3586H15.0436C15.0436 11.5584 12.4168 14.1672 9.15795 14.1672V15.6672ZM16.5436 8.3586V7.04688H15.0436V8.3586H16.5436ZM15.2741 6.50594L12.9808 8.70842L14.0198 9.79028L16.3131 7.58781L15.2741 6.50594ZM15.2329 7.545L17.1896 9.74748L18.311 8.75122L16.3543 6.54875L15.2329 7.545ZM3.74511 13.3311C5.09385 14.7682 7.0212 15.6672 9.15795 15.6672V14.1672C7.44966 14.1672 5.91389 13.4501 4.83887 12.3046L3.74511 13.3311Z" fill="#8A8A8A"/>
</svg>
