<svg width="14" height="14" viewBox="0 0 14 14" fill="none" xmlns="http://www.w3.org/2000/svg">
<path d="M11.5391 11.4844H3.74609C3.06759 11.4844 2.51562 10.9324 2.51562 10.2539C2.51562 9.5754 3.06759 9.02344 3.74609 9.02344H4.97656L4.23716 9.84375H3.74609C3.5198 9.84375 3.33594 10.0276 3.33594 10.2539C3.33594 10.4802 3.5198 10.6641 3.74609 10.6641H11.5391V11.4844Z" fill="#F9C2D2"/>
<path d="M7.84766 10.6641H11.5391V11.4844H7.84766V10.6641Z" fill="#F98AAB"/>
<path opacity="0.5" d="M2.96349 4.10173L2.59695 2.46094H0V1.64062H3.25462L3.9652 4.82254L2.96349 4.10173Z" fill="#F98AAB"/>
<path d="M9.60994 4.24216L9.48739 4.10156H2.96533L4.23827 9.84375H11.4476L12.8932 4.24977C12.6124 4.31993 10.9513 5.78318 9.60994 4.24216ZM11.6735 5.69051L11.4482 6.5625H9.52477L9.62906 5.3112C10.2306 5.67779 10.9699 5.82359 11.6735 5.69051ZM6.9955 6.5625L6.85875 4.92188H8.83874L8.70199 6.5625H6.9955ZM8.63366 7.38281L8.49692 9.02344H7.20055L7.0638 7.38281H8.63366ZM6.03601 4.92188L6.17275 6.5625H4.35122L3.98752 4.92188H6.03601ZM4.53306 7.38281H6.24108L6.37783 9.02344H4.89678L4.53306 7.38281ZM9.31972 9.02344L9.45646 7.38281H11.2363L10.8124 9.02344H9.31972Z" fill="#F9C2D2"/>
<path d="M9.60884 4.24216L9.48629 4.10156H7.84766V4.92188H8.83764L8.70089 6.5625H7.84766V7.38281H8.63256L8.49581 9.02344H7.84766V9.84375H11.4465L12.8921 4.24977C12.6113 4.3199 10.9502 5.78315 9.60884 4.24216ZM10.8113 9.02344H9.31861L9.45536 7.38281H11.2352L10.8113 9.02344ZM11.6724 5.69051L11.4471 6.5625H9.52366L9.62795 5.3112C10.2295 5.67779 10.9688 5.82359 11.6724 5.69051Z" fill="#F98AAB"/>
<path d="M5.38672 13.125C4.70821 13.125 4.15625 12.573 4.15625 11.8945C4.15625 11.216 4.70821 10.6641 5.38672 10.6641C6.06523 10.6641 6.61719 11.216 6.61719 11.8945C6.61719 12.573 6.06523 13.125 5.38672 13.125Z" fill="#665151"/>
<path d="M9.48828 13.125C8.80977 13.125 8.25781 12.573 8.25781 11.8945C8.25781 11.216 8.80977 10.6641 9.48828 10.6641C10.1668 10.6641 10.7188 11.216 10.7188 11.8945C10.7188 12.573 10.1668 13.125 9.48828 13.125Z" fill="#4D3535"/>
<path d="M11.1289 5.74219C9.50195 5.74219 8.25781 4.41295 8.25781 2.87109C8.25781 1.28814 9.54595 0 11.1289 0C12.7119 0 14 1.28814 14 2.87109C14 4.49255 12.6829 5.74219 11.1289 5.74219Z" fill="#F9C2D2"/>
<path d="M5.38672 12.3047C5.61324 12.3047 5.79688 12.1211 5.79688 11.8945C5.79688 11.668 5.61324 11.4844 5.38672 11.4844C5.1602 11.4844 4.97656 11.668 4.97656 11.8945C4.97656 12.1211 5.1602 12.3047 5.38672 12.3047Z" fill="#FFF7E6"/>
<path d="M9.48828 12.3047C9.7148 12.3047 9.89844 12.1211 9.89844 11.8945C9.89844 11.668 9.7148 11.4844 9.48828 11.4844C9.26176 11.4844 9.07812 11.668 9.07812 11.8945C9.07812 12.1211 9.26176 12.3047 9.48828 12.3047Z" fill="#FFEACC"/>
<path d="M14 2.87109C14 1.28814 12.7119 0 11.1289 0V5.74219C12.6829 5.74219 14 4.49255 14 2.87109Z" fill="#F98AAB"/>
<path d="M12.3594 2.46094H11.5391V1.64062H10.7188V2.46094H9.89844V3.28125H10.7188V4.10156H11.5391V3.28125H12.3594V2.46094Z" fill="white"/>
<path d="M11.1289 1.64062V4.10156H11.5391V3.28125H12.3594V2.46094H11.5391V1.64062H11.1289Z" fill="white"/>
</svg>
